<svg id="Layer_1" data-name="Layer 1" xmlns="http://www.w3.org/2000/svg" viewBox="0 0 141.73 31.64"><defs><style>.cls-1{fill:#231f20;}</style></defs><polygon class="cls-1" points="11.65 22.06 3.45 11.01 3.45 22.06 0 22.06 0 0 3.45 0 3.45 10.35 11.65 0 15.76 0 7.1 10.55 16.24 22.06 11.65 22.06"/><path class="cls-1" d="M82,13.17V29.51h3.15V13.17Z" transform="translate(-19.53 -7.45)"/><path class="cls-1" d="M82,8.27v2.88h3.15V8.27Z" transform="translate(-19.53 -7.45)"/><path class="cls-1" d="M138.41,13c-4.42,0-7.72,3.44-7.72,8.39s3.3,8.35,7.72,8.35,7.49-3.41,7.49-8.33S142.84,13,138.41,13Zm0,14.29c-2.43,0-4.6-2.69-4.6-5.88,0-3.46,2.1-5.94,4.6-5.94s4.33,2.8,4.33,5.94S140.91,27.24,138.41,27.24Z" transform="translate(-19.53 -7.45)"/><path class="cls-1" d="M51.81,15.4V29.51h3.12V16.65a6.3,6.3,0,0,1,3.91-1.26c2,0,3.16,1.35,3.16,3.69V29.51h3.1V19c0-4-2.26-6.2-6.31-6.2A9.61,9.61,0,0,0,51.81,15.4Z" transform="translate(-19.53 -7.45)"/><path class="cls-1" d="M148,15.4V29.51h3.13V16.65A6.21,6.21,0,0,1,155,15.39c2.05,0,3.17,1.35,3.17,3.69V29.51h3.11V19c0-4-2.27-6.2-6.32-6.2A9.59,9.59,0,0,0,148,15.4Z" transform="translate(-19.53 -7.45)"/><path class="cls-1" d="M88.76,15.4V29.51h3.11V16.65a6.28,6.28,0,0,1,3.91-1.26c2,0,3.17,1.35,3.17,3.69V29.51h3.11V19c0-4-2.28-6.2-6.33-6.2A9.55,9.55,0,0,0,88.76,15.4Z" transform="translate(-19.53 -7.45)"/><path class="cls-1" d="M122.45,8.27v4.46h1.82v3.34h-1.8V24.4c0,2.84,2,5.22,4.62,5.22a7.28,7.28,0,0,0,2.61-.33l-.6-2.25a4.33,4.33,0,0,1-1.17.16c-1.63.05-2.37-1.6-2.37-2.8l0-8.41h3.87V12.78h-3.86V8.27Z" transform="translate(-19.53 -7.45)"/><path class="cls-1" d="M49.11,21.86c0-.32,0-.8,0-1.13,0-4.55-2.33-7.73-6.74-7.73s-7.31,3.23-7.31,7.94c0,4.21,2.79,8.76,7.86,8.76a11.23,11.23,0,0,0,5.77-1.19c-.15-.43-.61-1.89-.78-2.32a8.75,8.75,0,0,1-4.31,1.07A5.25,5.25,0,0,1,38.27,22v-.12Zm-6.67-6.47a3.64,3.64,0,0,1,3.71,3.89H38.27A4.09,4.09,0,0,1,42.44,15.39Z" transform="translate(-19.53 -7.45)"/><path class="cls-1" d="M120.27,16V12.78a3.88,3.88,0,0,0-4,2.65l-.1-.17a5.63,5.63,0,0,0-4.73-2.3,6,6,0,0,0-6.36,6.32,6.17,6.17,0,0,0,2.07,4.91l.2.15-.23.06a2.87,2.87,0,0,0-1.95,2.75,3,3,0,0,0,1.49,2.42l.34.14-.34.24A4.74,4.74,0,0,0,104.06,34c0,2.86,3.1,5.06,7.56,5.06,5.81,0,8.34-2.85,8.34-6,0-2.92-2.41-5.22-6.67-5.22h-1.53c-2.49,0-3.33-.35-3.45-1.22a1,1,0,0,1,.68-1.17l.17-.08.13,0a8.7,8.7,0,0,0,2.13.23,6,6,0,0,0,6.3-6.38c0-.35-.08-1.14-.11-1.5C117.8,16.36,119,16,120.27,16Zm-11,14.61.2-.07H113c2,0,3.86.77,3.86,2.44s-1.47,3.37-4.65,3.37c-2.75,0-5.13-.75-5.13-3.08A2.78,2.78,0,0,1,109.23,30.62Zm2.19-7.4c-1.89,0-3.27-1.74-3.27-3.94s1.38-4,3.27-4,3.25,1.72,3.25,4S113.29,23.22,111.42,23.22Z" transform="translate(-19.53 -7.45)"/><path class="cls-1" d="M75.05,20c1.23.39,4,1.43,4,4.6a4.58,4.58,0,0,1-1.73,3.62,7.61,7.61,0,0,1-4.91,1.47,11.84,11.84,0,0,1-4.91-1.19l.81-2.36a11,11,0,0,0,4,1.12c2.42,0,3.47-1.35,3.47-2.29,0-1.42-1.47-1.87-3.34-2.49l-1-.33c-1.26-.4-4-1.48-4-4.45,0-3.16,2.61-4.73,6.2-4.73a9,9,0,0,1,4.49,1.18l-.43,2.37a8.64,8.64,0,0,0-4-1.14c-2,0-3.12.88-3.12,2,0,1.32,1.37,1.72,3.28,2.3Z" transform="translate(-19.53 -7.45)"/></svg>