<?xml version="1.0" standalone="no"?>
<!DOCTYPE svg PUBLIC "-//W3C//DTD SVG 1.1//EN" "http://www.w3.org/Graphics/SVG/1.1/DTD/svg11.dtd" >
<svg xmlns="http://www.w3.org/2000/svg">
<metadata>Generated by IcoMoon</metadata>
<defs>
<font id="icomoon" horiz-adv-x="1024">
<font-face units-per-em="1024" ascent="960" descent="-64" />
<missing-glyph horiz-adv-x="1024" />
<glyph unicode="&#x20;" horiz-adv-x="512" d="" />
<glyph unicode="&#xe900;" glyph-name="ic_lowlightcomp" d="M512.585 191.543c17.673 0 32-14.327 32-32v-73.69c0-17.673-14.327-32-32-32s-32 14.327-32 32v73.69c0 17.673 14.327 32 32 32zM857.318 214.17c-11.913-13.056-32.154-13.982-45.21-2.069l-41.638 37.99c-13.056 11.913-13.982 32.154-2.069 45.21 11.908 13.056 32.149 13.982 45.205 2.069l41.638-37.99c13.056-11.913 13.986-32.154 2.074-45.21zM694.686 88.196c-16.738-5.666-34.901 3.307-40.572 20.049l-23.919 70.643c-5.666 16.738 3.307 34.906 20.045 40.572 16.742 5.67 34.906-3.307 40.576-20.045l23.919-70.647c5.666-16.738-3.307-34.901-20.049-40.572zM170.1 214.17c11.912-13.056 32.152-13.982 45.207-2.069l41.64 37.99c13.056 11.913 13.983 32.154 2.071 45.21s-32.152 13.982-45.207 2.069l-41.64-37.99c-13.056-11.913-13.983-32.154-2.071-45.21zM327.479 88.529c16.55-6.204 34.992 2.189 41.192 18.739l26.47 70.656c6.2 16.55-2.191 34.995-18.74 41.195s-34.992-2.193-41.192-18.739l-26.47-70.66c-6.2-16.55 2.191-34.991 18.74-41.19zM533.773 533.667c0 11.782-9.553 21.333-21.333 21.333-11.785 0-21.333-9.551-21.333-21.333v-47.501h-47.479c-11.785 0-21.335-9.549-21.335-21.333 0-11.78 9.551-21.333 21.335-21.333h47.479v-47.522c0-11.78 9.549-21.333 21.333-21.333 11.78 0 21.333 9.553 21.333 21.333v47.522h47.539c11.785 0 21.333 9.553 21.333 21.333 0 11.785-9.549 21.333-21.333 21.333h-47.539v47.501zM466.543 786.104c0 25.348 20.548 45.896 45.897 45.896v0c25.348 0 45.897-20.548 45.897-45.896v-137.689h-91.793v137.689zM512.439 864c-43.021 0-77.897-34.875-77.897-77.896v-120.183c-80.577-31.226-137.71-109.486-137.71-201.089 0-119.066 96.521-215.586 215.585-215.586 119.066 0 215.586 96.521 215.586 215.586 0 91.589-57.114 169.838-137.668 201.074v120.198c0 43.021-34.876 77.896-77.897 77.896zM511.68 616.415h1.481c83.375-0.399 150.844-68.112 150.844-151.583 0-83.721-67.866-151.586-151.586-151.586-83.716 0-151.585 67.866-151.585 151.586 0 83.471 67.468 151.184 150.847 151.583z" />
<glyph unicode="&#xe901;" glyph-name="ic_backlightcomp" d="M625.762 447.991c0-62.835-50.94-113.775-113.775-113.775-62.839 0-113.779 50.94-113.779 113.775 0 62.839 50.939 113.779 113.779 113.779 62.835 0 113.775-50.94 113.775-113.779zM511.987 398.217c27.49 0 49.775 22.285 49.775 49.775 0 27.494-22.285 49.779-49.775 49.779-27.494 0-49.779-22.285-49.779-49.779 0-27.49 22.285-49.775 49.779-49.775zM810.667 248.896l-99.554 66.372v265.479l99.554 66.371v-398.222zM213.333 647.104l99.555-66.37v-265.483l-99.555-66.368v398.221zM729.894 752.462c3.712-6.937 3.302-15.354-1.062-21.9l-66.368-99.555c-1.097-1.642-2.398-3.103-3.857-4.357 11.686-9.603 22.413-20.329 32.017-32.015 1.254 1.463 2.718 2.767 4.361 3.863l99.558 66.371c6.545 4.364 14.963 4.771 21.897 1.059 6.938-3.712 11.268-10.941 11.268-18.809v-398.222c0-7.868-4.331-15.095-11.268-18.807-6.933-3.716-15.351-3.307-21.897 1.058l-99.558 66.368c-1.638 1.092-3.098 2.394-4.348 3.853-9.604-11.686-20.331-22.417-32.017-32.017 1.463-1.254 2.765-2.714 3.857-4.356l66.372-99.558c4.365-6.545 4.77-14.963 1.058-21.897-3.712-6.938-10.944-11.268-18.812-11.268h-398.22c-7.868 0-15.097 4.331-18.809 11.268-3.712 6.933-3.305 15.351 1.059 21.897l66.371 99.558c1.094 1.643 2.396 3.102 3.857 4.356-11.686 9.6-22.414 20.331-32.017 32.017-1.255-1.463-2.718-2.769-4.363-3.866l-99.555-66.372c-6.546-4.361-14.963-4.77-21.9-1.058s-11.267 10.944-11.267 18.812v398.221c0 7.868 4.33 15.097 11.267 18.809s15.354 3.305 21.9-1.059l99.555-66.371c1.645-1.097 3.107-2.4 4.363-3.865 9.603 11.687 20.331 22.415 32.018 32.019-1.467 1.257-2.774 2.721-3.872 4.369l-66.37 99.555c-4.364 6.546-4.771 14.963-1.059 21.9s10.941 11.267 18.809 11.267h398.222c7.868 0 15.095-4.33 18.812-11.267zM511.987 615.104c-92.294 0-167.112-74.818-167.112-167.113 0-92.292 74.818-167.108 167.112-167.108 92.292 0 167.108 74.816 167.108 167.108 0 92.294-74.816 167.113-167.108 167.113z" />
<glyph unicode="&#xe902;" glyph-name="ic_settings_p" d="M451.14 745.353c2.28 11.396 12.286 19.599 23.908 19.599h98.311c11.62 0 21.628-8.203 23.906-19.599l14.997-74.979c5.259-1.975 10.433-4.12 15.514-6.432l63.622 42.416c9.672 6.446 22.548 5.171 30.766-3.048l69.515-69.515c8.219-8.219 9.492-21.094 3.045-30.764l-42.408-63.612c2.319-5.096 4.471-10.281 6.451-15.553l74.967-14.994c11.396-2.28 19.6-12.286 19.6-23.908v-98.309c0-11.622-8.204-21.628-19.6-23.908l-74.964-14.992c-1.98-5.274-4.133-10.462-6.451-15.56l42.406-63.607c6.446-9.669 5.171-22.545-3.045-30.764l-69.517-69.515c-8.216-8.219-21.094-9.494-30.764-3.048l-63.615 42.411c-5.093-2.316-10.279-4.469-15.55-6.446l-14.992-74.959c-2.28-11.396-12.286-19.6-23.908-19.6h-98.311c-11.62 0-21.628 8.204-23.906 19.6l-14.997 74.974c-5.259 1.975-10.435 4.123-15.518 6.434l-63.617-42.413c-9.672-6.446-22.548-5.171-30.764 3.048l-69.517 69.515c-8.219 8.219-9.492 21.094-3.045 30.764l42.411 63.617c-2.316 5.093-4.467 10.277-6.446 15.548l-74.974 14.994c-11.396 2.28-19.599 12.286-19.599 23.908v98.309c0 11.622 8.203 21.628 19.599 23.908l74.977 14.994c1.98 5.269 4.13 10.455 6.446 15.545l-42.413 63.62c-6.446 9.669-5.171 22.545 3.045 30.764l69.517 69.515c8.216 8.219 21.094 9.494 30.764 3.048l63.627-42.418c5.088 2.314 10.269 4.464 15.536 6.441l14.994 74.972zM495.036 716.19l-13.822-69.11c-1.753-8.765-8.163-15.87-16.706-18.51-11.969-3.703-23.464-8.489-34.375-14.251-7.907-4.176-17.467-3.689-24.91 1.273l-58.658 39.105-41.25-41.248 39.105-58.653c4.959-7.444 5.449-17.003 1.27-24.912-5.764-10.91-10.552-22.409-14.256-34.382-2.643-8.538-9.745-14.948-18.51-16.701l-69.115-13.824v-58.334l69.113-13.824c8.765-1.753 15.87-8.163 18.51-16.703 3.703-11.973 8.492-23.472 14.256-34.382 4.176-7.909 3.689-17.471-1.273-24.912l-39.1-58.648 41.25-41.25 58.651 39.1c7.441 4.962 17.003 5.452 24.91 1.273 10.906-5.759 22.396-10.545 34.36-14.246 8.538-2.643 14.948-9.745 16.701-18.51l13.822-69.11h58.336l13.819 69.098c1.753 8.767 8.165 15.87 16.706 18.51 11.973 3.703 23.474 8.492 34.387 14.256 7.909 4.176 17.469 3.689 24.91-1.273l58.648-39.097 41.25 41.248-39.095 58.644c-4.962 7.441-5.452 17.003-1.273 24.912 5.766 10.913 10.557 22.416 14.26 34.392 2.64 8.541 9.745 14.95 18.51 16.703l69.103 13.822v58.334l-69.105 13.822c-8.765 1.753-15.87 8.163-18.51 16.703-3.703 11.973-8.494 23.474-14.26 34.387-4.176 7.909-3.689 17.471 1.273 24.912l39.097 58.646-41.25 41.25-58.653-39.102c-7.444-4.962-17.003-5.452-24.91-1.275-10.903 5.759-22.394 10.545-34.355 14.246-8.541 2.64-14.95 9.745-16.703 18.51l-13.822 69.115h-58.336zM524.188 519.573c-46.26 0-83.761-37.5-83.761-83.761s37.5-83.761 83.761-83.761c46.26 0 83.761 37.5 83.761 83.761s-37.5 83.761-83.761 83.761zM391.665 435.812c0 73.189 59.333 132.523 132.523 132.523s132.523-59.333 132.523-132.523c0-73.189-59.333-132.523-132.523-132.523s-132.523 59.333-132.523 132.523z" />
<glyph unicode="&#xe903;" glyph-name="ic_adjust_p" d="M535.167 578.441c0-16.833 13.644-30.476 30.476-30.476s30.476 13.644 30.476 30.476v25.595h171.881c13.466 0 24.381 10.915 24.381 24.381s-10.915 24.381-24.381 24.381h-171.881v32.919c0 16.833-13.644 30.476-30.476 30.476s-30.476-13.644-30.476-30.476v-32.919h-279.167c-13.465 0-24.381-10.915-24.381-24.381s10.916-24.381 24.381-24.381h279.167v-25.595zM649.762 183.464c-16.833 0-30.476 13.644-30.476 30.476v25.607h-363.286c-13.465 0-24.381 10.915-24.381 24.381s10.916 24.381 24.381 24.381h363.286v32.907c0 16.833 13.644 30.476 30.476 30.476 16.83 0 30.476-13.644 30.476-30.476v-32.907h87.762c13.466 0 24.381-10.915 24.381-24.381s-10.915-24.381-24.381-24.381h-87.762v-25.607c0-16.833-13.646-30.476-30.476-30.476zM366.928 382.167c0-16.833 13.644-30.476 30.476-30.476s30.476 13.644 30.476 30.476v25.607h340.119c13.466 0 24.381 10.915 24.381 24.381s-10.915 24.381-24.381 24.381h-340.119v32.907c0 16.833-13.644 30.476-30.476 30.476s-30.476-13.644-30.476-30.476v-32.907h-110.928c-13.465 0-24.381-10.915-24.381-24.381s10.916-24.381 24.381-24.381h110.928v-25.607z" />
<glyph unicode="&#xe904;" glyph-name="ic_brightness" d="M512.166 341.355c-58.91 0-106.666 47.757-106.666 106.667s47.756 106.666 106.666 106.666c58.91 0 106.667-47.756 106.667-106.666s-47.757-106.667-106.667-106.667zM512.166 277.355c94.255 0 170.667 76.407 170.667 170.667 0 94.256-76.412 170.666-170.667 170.666s-170.666-76.41-170.666-170.666c0-94.259 76.41-170.667 170.666-170.667zM512.209 853.333c17.673 0 32-14.327 32-32v-106.667c0-17.673-14.327-32-32-32s-32 14.327-32 32v106.667c0 17.673 14.327 32 32 32zM512.209 213.333c17.673 0 32-14.327 32-32v-106.667c0-17.673-14.327-32-32-32s-32 14.327-32 32v106.667c0 17.673 14.327 32 32 32zM224.425 733.259c12.445 12.548 32.706 12.632 45.254 0.187l75.736-75.113c12.548-12.445 12.632-32.706 0.187-45.254s-32.706-12.632-45.254-0.187l-75.736 75.112c-12.548 12.445-12.632 32.706-0.187 45.255zM678.839 282.59c12.446 12.548 32.708 12.634 45.257 0.188l75.733-75.11c12.548-12.446 12.634-32.708 0.188-45.257s-32.704-12.629-45.252-0.188l-75.738 75.115c-12.548 12.446-12.629 32.704-0.188 45.252zM798.43 734.974c12.51-12.481 12.535-32.742 0.055-45.255l-75.332-75.519c-12.48-12.512-32.742-12.538-45.257-0.056-12.51 12.481-12.535 32.742-0.055 45.255l75.332 75.519c12.48 12.512 32.742 12.538 45.257 0.056zM346.47 281.869c12.512-12.48 12.538-32.742 0.056-45.252l-75.331-75.52c-12.481-12.514-32.743-12.535-45.255-0.055s-12.538 32.742-0.057 45.252l75.331 75.52c12.481 12.514 32.742 12.54 45.255 0.055zM106.833 448.021c0 17.673 14.327 32 32 32h106.667c17.673 0 32-14.327 32-32s-14.327-32-32-32h-106.667c-17.673 0-32 14.327-32 32zM746.833 448.021c0 17.673 14.327 32 32 32h106.667c17.673 0 32-14.327 32-32s-14.327-32-32-32h-106.667c-17.673 0-32 14.327-32 32z" />
<glyph unicode="&#xe905;" glyph-name="ic_reset_d" d="M549.308 696.208c99.369-11.715 190.003-84.773 217.541-179.78 12.524-35.087 20.234-98.189 3.233-161.007-17.513-64.709-61.542-129.602-152.34-162.024-93.364-33.339-171.518-13.319-229.098 25.632-56.442 38.183-93.179 94.469-106.991 135.897-4.259 12.776 2.643 26.583 15.416 30.842 12.776 4.259 26.583-2.643 30.842-15.419 10.569-31.695 40.88-79.019 88.057-110.931 46.039-31.144 108.076-47.701 185.378-20.1 73.584 26.275 107.686 77.183 121.668 128.841 14.358 53.053 7.183 106.384-2.287 132.425l-0.295 0.809-0.236 0.827c-21.511 75.298-95.217 135.968-176.596 145.559-40.073 4.725-81.662-3.001-119.74-27.368-32.4-20.731-63.337-54.216-88.552-104.521l97.497 31.703c12.805 4.164 26.561-2.84 30.725-15.645s-2.84-26.561-15.645-30.725l-155.967-50.717c-6.573-2.136-13.746-1.382-19.732 2.072-5.986 3.457-10.223 9.289-11.659 16.050l-34.062 160.432c-2.796 13.171 5.614 26.117 18.785 28.913 13.173 2.796 26.117-5.615 28.913-18.786l20.368-95.934c28.087 54.016 63.444 92.891 103.046 118.231 48.247 30.874 101.288 40.667 151.73 34.723z" />
<glyph unicode="&#xe906;" glyph-name="ic_reset_n" d="M549.283 696.208c99.369-11.715 190.003-84.773 217.541-179.78 12.524-35.087 20.236-98.189 3.233-161.007-17.513-64.709-61.542-129.602-152.337-162.024-93.367-33.339-171.52-13.319-229.098 25.632-56.444 38.183-93.179 94.469-106.993 135.897-4.259 12.776 2.643 26.583 15.419 30.842 12.773 4.259 26.58-2.643 30.839-15.419 10.569-31.695 40.882-79.019 88.057-110.931 46.039-31.144 108.076-47.701 185.378-20.1 73.584 26.275 107.686 77.183 121.668 128.841 14.358 53.053 7.183 106.384-2.287 132.425l-0.295 0.809-0.236 0.827c-21.511 75.298-95.217 135.968-176.596 145.559-40.073 4.725-81.662-3.001-119.74-27.368-32.4-20.731-63.337-54.216-88.552-104.521l97.497 31.703c12.805 4.164 26.563-2.84 30.725-15.645 4.164-12.805-2.84-26.561-15.645-30.725l-155.967-50.717c-6.573-2.136-13.744-1.382-19.732 2.072-5.986 3.457-10.223 9.289-11.657 16.050l-34.064 160.432c-2.797 13.171 5.614 26.117 18.785 28.913 13.173 2.796 26.117-5.615 28.913-18.786l20.37-95.934c28.084 54.016 63.444 92.891 103.044 118.231 48.247 30.874 101.288 40.667 151.73 34.723z" />
<glyph unicode="&#xe907;" glyph-name="ic_output_p" d="M207.238 667.429c0 26.931 21.831 48.762 48.762 48.762h512c26.931 0 48.762-21.831 48.762-48.762v-438.857c0-26.931-21.831-48.762-48.762-48.762h-512c-26.93 0-48.762 21.831-48.762 48.762v438.857zM304.762 667.429h-48.762v-438.857h512v438.857h-463.238zM694.857 447.995c0-8.194-4.116-15.838-10.954-20.351l-128-84.458c-7.487-4.942-17.084-5.371-24.981-1.119-7.899 4.252-12.827 12.498-12.827 21.47v60.082h-152.381c-13.466 0-24.381 10.915-24.381 24.381s10.915 24.381 24.381 24.381h152.381v60.072c0 8.97 4.927 17.215 12.827 21.467 7.897 4.252 17.493 3.823 24.981-1.119l128-84.458c6.839-4.51 10.954-12.156 10.954-20.348z" />
<glyph unicode="&#xe908;" glyph-name="ic_menu" d="M268.19 618.667c0 13.466 10.915 24.381 24.381 24.381h463.238c13.466 0 24.381-10.915 24.381-24.381s-10.915-24.381-24.381-24.381h-463.238c-13.466 0-24.381 10.915-24.381 24.381zM268.19 472.381c0 13.466 10.915 24.381 24.381 24.381h463.238c13.466 0 24.381-10.915 24.381-24.381s-10.915-24.381-24.381-24.381h-463.238c-13.466 0-24.381 10.915-24.381 24.381zM292.571 350.476c-13.466 0-24.381-10.915-24.381-24.381s10.915-24.381 24.381-24.381h463.238c13.466 0 24.381 10.915 24.381 24.381s-10.915 24.381-24.381 24.381h-463.238z" />
<glyph unicode="&#xe909;" glyph-name="ic_effect_p" d="M219.429 691.81c0 26.93 21.831 48.762 48.762 48.762h487.619c26.931 0 48.762-21.831 48.762-48.762v-463.238c0-26.931-21.831-48.762-48.762-48.762h-487.619c-26.93 0-48.762 21.831-48.762 48.762v463.238zM268.19 691.81v-463.238h122.824c1.733 11.852 5.82 28.109 11.427 50.417 0.975 3.874 1.994 7.931 3.055 12.178 26.539 82.79 53.024 132.452 118.43 132.452 104.814 0 124.533-120.773 136.443-193.716v-0.005c0.029-0.173 0.056-0.346 0.085-0.517 0.044-0.271 0.088-0.541 0.132-0.809h95.222v463.238h-487.619zM609 533.597c0-46.985-38.088-85.072-85.072-85.072-46.982 0-85.070 38.088-85.070 85.072 0 46.982 38.088 85.070 85.070 85.070 46.985 0 85.072-38.088 85.072-85.070z" />
<glyph unicode="&#xe90a;" glyph-name="ic_device_p" d="M243.81 594.286c0 13.466 10.915 24.381 24.381 24.381h414.476c13.466 0 24.381-10.915 24.381-24.381v-68.569l109.434 65.139c7.536 4.484 16.898 4.579 24.52 0.244 7.624-4.332 12.332-12.427 12.332-21.194v-243.81c0-8.767-4.708-16.862-12.332-21.194-7.621-4.335-16.984-4.24-24.52 0.244l-109.434 65.139v-68.569c0-13.466-10.915-24.381-24.381-24.381h-414.476c-13.466 0-24.381 10.915-24.381 24.381v292.571zM658.286 413.169v156.735h-365.714v-243.81h365.714v87.074z" />
<glyph unicode="&#xe90b;" glyph-name="ic_control_p" d="M292.571 691.81c-13.466 0-24.381-10.915-24.381-24.381v-168.377c0-13.466 10.915-24.381 24.381-24.381s24.381 10.915 24.381 24.381v143.996h143.996c13.466 0 24.381 10.915 24.381 24.381s-10.915 24.381-24.381 24.381h-168.377zM438.857 545.524c-13.466 0-24.381-10.915-24.381-24.381v-170.667c0-13.466 10.915-24.381 24.381-24.381h170.667c13.466 0 24.381 10.915 24.381 24.381v170.667c0 13.466-10.915 24.381-24.381 24.381h-170.667zM777.904 206.477c0-13.466-10.915-24.381-24.381-24.381h-168.377c-13.463 0-24.381 10.915-24.381 24.381 0 13.463 10.918 24.381 24.381 24.381h143.996v143.996c0 13.463 10.918 24.381 24.381 24.381 13.466 0 24.381-10.918 24.381-24.381v-168.377zM753.523 691.797c13.466 0 24.381-10.915 24.381-24.381v-168.377c0-13.466-10.915-24.381-24.381-24.381-13.463 0-24.381 10.915-24.381 24.381v143.996h-143.996c-13.463 0-24.381 10.915-24.381 24.381s10.918 24.381 24.381 24.381h168.377zM268.19 206.477c0-13.466 10.915-24.381 24.381-24.381h168.377c13.466 0 24.381 10.915 24.381 24.381 0 13.463-10.915 24.381-24.381 24.381h-143.996v143.996c0 13.463-10.915 24.381-24.381 24.381s-24.381-10.918-24.381-24.381v-168.377z" />
<glyph unicode="&#xe90c;" glyph-name="ic_arrow" d="M322.514 420.311c-7.414 9.004-7.414 21.996 0 30.998l170.667 207.238c8.56 10.396 23.925 11.883 34.319 3.323s11.881-23.927 3.321-34.321l-157.901-191.739 157.901-191.739c8.56-10.394 7.073-25.758-3.321-34.319s-25.758-7.073-34.319 3.321l-170.667 207.238zM468.799 420.311c-7.414 9.004-7.414 21.996 0 30.998l170.667 207.238c8.56 10.396 23.925 11.883 34.319 3.323s11.881-23.927 3.321-34.321l-157.901-191.739 157.901-191.739c8.56-10.394 7.073-25.758-3.321-34.319s-25.758-7.073-34.319 3.321l-170.667 207.238z" />
<glyph unicode="&#xe90d;" glyph-name="ic_exposure" horiz-adv-x="1067" d="M678.093 282.074c13.090 0 23.706 10.611 23.706 23.706 0 13.090-10.615 23.701-23.706 23.701h-142.221c-13.094 0-23.706-10.611-23.706-23.701 0-13.094 10.611-23.706 23.706-23.706h142.221zM502.677 566.519c0-13.091-10.615-23.704-23.706-23.704h-47.407v-47.408c0-13.090-10.612-23.701-23.703-23.701s-23.704 10.611-23.704 23.701v47.408h-47.407c-13.091 0-23.704 10.612-23.704 23.704s10.612 23.703 23.704 23.703h47.407v47.407c0 13.091 10.612 23.704 23.704 23.704s23.703-10.612 23.703-23.704v-47.407h47.407c13.090 0 23.706-10.612 23.706-23.703zM227.722 128h568.89c19.635 0 35.554 15.919 35.554 35.554v568.89c0 19.636-15.919 35.555-35.554 35.555h-568.89c-19.637 0-35.555-15.919-35.555-35.555v-568.89c0-19.635 15.919-35.554 35.555-35.554zM761.054 199.113h-457.573l457.573 457.573v-457.573zM263.278 696.889h457.529l-457.529-457.529v457.529z" />
<glyph unicode="&#xe90e;" glyph-name="ic_white_balance" horiz-adv-x="1067" d="M510.942 633.87c18.308 0 33.152 14.841 33.152 33.149v110.498c0 18.308-14.844 33.149-33.152 33.149s-33.148-14.842-33.148-33.149v-110.498c0-18.308 14.839-33.149 33.148-33.149zM245.734 578.621h530.389c18.308 0 33.152-14.842 33.152-33.149v-176.797c0-18.308-14.844-33.148-33.152-33.148h-530.389c-18.308 0-33.149 14.839-33.149 33.148v176.797c0 18.308 14.842 33.149 33.149 33.149zM632.465 401.826h110.511v110.498h-110.511v-110.498zM389.371 512.324h-110.487v-110.498h110.487v110.498zM226.351 704.193c-13.524 12.34-34.491 11.379-46.831-2.145s-11.379-34.492 2.146-46.831l40.1-36.587c13.524-12.34 34.492-11.379 46.831 2.145s11.379 34.492-2.145 46.831l-40.1 36.587zM320.684 791.847c16.734 7.427 36.32-0.118 43.747-16.852l47.632-107.32c7.427-16.734-0.118-36.32-16.852-43.747s-36.32 0.118-43.747 16.852l-47.631 107.32c-7.427 16.734 0.118 36.32 16.852 43.747zM797.995 704.193c13.525 12.34 34.492 11.379 46.831-2.145s11.379-34.492-2.142-46.831l-40.102-36.587c-13.525-12.34-34.492-11.379-46.831 2.145s-11.379 34.492 2.146 46.831l40.098 36.587zM703.663 791.847c-16.734 7.427-36.318-0.118-43.746-16.852l-47.633-107.32c-7.424-16.734 0.119-36.32 16.853-43.747s36.318 0.118 43.746 16.852l47.633 107.32c7.424 16.734-0.119 36.32-16.853 43.747zM546.526 242.697c0 18.308-14.839 33.148-33.148 33.148s-33.148-14.839-33.148-33.148v-110.498c0-18.308 14.839-33.152 33.148-33.152s33.148 14.844 33.148 33.152v110.498zM844.8 207.667c-12.339-13.525-33.306-14.485-46.831-2.146l-40.098 36.587c-13.525 12.339-14.485 33.31-2.146 46.831 12.339 13.525 33.306 14.485 46.831 2.146l40.102-36.587c13.521-12.339 14.481-33.306 2.142-46.831zM659.891 134.72c7.428-16.734 27.012-24.277 43.746-16.853 16.734 7.428 24.277 27.012 16.853 43.746l-47.633 107.324c-7.428 16.734-27.012 24.277-43.746 16.849-16.734-7.424-24.277-27.012-16.853-43.746l47.633-107.319zM179.495 207.667c12.34-13.525 33.306-14.485 46.831-2.146l40.1 36.587c13.524 12.339 14.485 33.31 2.145 46.831-12.34 13.525-33.306 14.485-46.831 2.146l-40.1-36.587c-13.524-12.339-14.485-33.306-2.145-46.831zM364.405 134.72c-7.427-16.734-27.013-24.277-43.747-16.853-16.734 7.428-24.279 27.012-16.852 43.746l47.631 107.324c7.427 16.734 27.013 24.277 43.747 16.849 16.734-7.424 24.279-27.012 16.852-43.746l-47.632-107.319z" />
<glyph unicode="&#xe90f;" glyph-name="ic_gamma" horiz-adv-x="1067" d="M256.167 768c-35.346 0-64-28.654-64-64v-502.852c0-35.349 28.654-64 64-64h502.852c35.349 0 64 28.651 64 64v502.852c0 35.346-28.651 64-64 64h-502.852zM256.167 704h383.611c-46.827-28.975-97.015-72.617-133.495-137.486-42.496-75.561-54.187-105.219-63.62-130.572l-1.122-3.029c-7.607-20.506-14.234-38.379-44.645-89.818-29.199-49.391-68.3-79.057-100.324-96.461-16.011-8.7-30.103-14.246-39.998-17.574-0.137-0.047-0.272-0.090-0.407-0.137v475.076zM353.921 201.148c34.505 22.754 72.314 56.832 102.002 107.051 33.421 56.529 41.293 77.7 50.317 101.973v0l0.691 1.856c8.030 21.585 18.138 48 59.119 120.87 37.372 66.448 92.924 106.26 140.173 129.628 20.105 9.942 38.451 16.775 52.796 21.322v-482.7h-405.097z" />
<glyph unicode="&#xe910;" glyph-name="ic_sharpness" horiz-adv-x="1067" d="M512.166 746.667c13.013 0 25.037-6.942 31.543-18.211l304.909-528.123c6.507-11.268 6.507-25.152 0-36.42-6.502-11.268-18.53-18.21-31.539-18.21h-609.824c-13.012 0-25.036 6.942-31.543 18.21s-6.506 25.152 0 36.42l304.91 528.123c6.507 11.269 18.53 18.211 31.543 18.211zM512.166 637.4l-241.826-418.857h483.652l-241.826 418.857z" />
<glyph unicode="&#xe911;" glyph-name="ic_saturation" horiz-adv-x="1067" d="M249.566 447.979c0 145.019 117.561 262.58 262.579 262.58 145.020 0 262.579-117.561 262.579-262.58s-117.559-262.579-262.579-262.579c-145.018 0-262.579 117.559-262.579 262.579zM170.792 447.979c0-188.523 152.829-341.355 341.353-341.355 188.527 0 341.355 152.832 341.355 341.355 0 188.525-152.828 341.355-341.355 341.355-188.524 0-341.353-152.829-341.353-341.355z" />
<glyph unicode="&#xe912;" glyph-name="ic_hue" horiz-adv-x="1067" d="M512.166 810.667c-20.928 0-36.723-10.878-46.665-18.807-28.002-22.327-65.335-55.073-102.668-96.751-74.675-83.363-149.333-202.437-149.333-345.323 0-157.751 133.628-285.786 298.666-285.786s298.667 128.034 298.667 285.786c0 142.886-74.658 261.961-149.333 345.323-37.333 41.677-74.667 74.423-102.665 96.751-9.946 7.929-25.741 18.807-46.669 18.807zM512.166 724.713c24.866-20.11 56.887-48.611 88.725-84.158 35.029-39.104 67.823-84.422 91.511-134.613-3.75-6.498-3.75-33.715-58.057-60.932-54.302-27.217-86.635-27.217-162.906-27.217-102.668 0-162.911-54.434-176.486-68.006 0 114.001 59.965 214.276 128.485 290.769 31.844 35.546 63.861 64.048 88.727 84.158z" />
<glyph unicode="&#xe913;" glyph-name="ic_contrast" horiz-adv-x="1067" d="M512.166 789.333c-188.513 0-341.333-152.82-341.333-341.333s152.82-341.333 341.333-341.333c188.514 0 341.333 152.819 341.333 341.333s-152.819 341.333-341.333 341.333zM249.603 448c0 145.010 117.554 262.564 262.564 262.564 1.421 0 0-288.821 0-525.126-145.010 0-262.564 117.551-262.564 262.562z" />
<glyph unicode="&#xe914;" d="M117.333 640c0 17.673 14.327 32 32 32h725.333c17.673 0 32-14.327 32-32v-362.667c0-17.673-14.327-32-32-32h-725.333c-17.673 0-32 14.327-32 32v362.667zM181.333 608v-298.667h661.333v298.667h-661.333z" />
<glyph unicode="&#xe915;" d="M181.333 608v-298.667h661.333v298.667h-661.333z" />
<glyph unicode="&#xe916;" d="M117.333 640c0 17.673 14.327 32 32 32h725.333c17.673 0 32-14.327 32-32v-362.667c0-17.673-14.327-32-32-32h-725.333c-17.673 0-32 14.327-32 32v362.667zM181.333 608v-298.667h661.333v298.667h-661.333z" />
<glyph unicode="&#xe917;" d="M181.333 608v-298.667h661.333v298.667h-661.333z" />
<glyph unicode="&#xe918;" d="M330.667 53.333c-17.673 0-32 14.327-32 32v725.333c0 17.673 14.327 32 32 32h362.667c17.673 0 32-14.327 32-32v-725.333c0-17.673-14.327-32-32-32h-362.667zM362.667 117.333h298.667v661.333h-298.667v-661.333z" />
<glyph unicode="&#xe919;" d="M362.667 117.333h298.667v661.333h-298.667v-661.333z" />
<glyph unicode="&#xe91a;" d="M332.791 53.333c-17.673 0-32 14.327-32 32v725.333c0 17.673 14.327 32 32 32h362.667c17.673 0 32-14.327 32-32v-725.333c0-17.673-14.327-32-32-32h-362.667zM364.791 117.333h298.667v661.333h-298.667v-661.333z" />
<glyph unicode="&#xe91b;" d="M364.791 117.333h298.667v661.333h-298.667v-661.333z" />
<glyph unicode="&#xe91c;" d="M130.917 704c0 17.673 14.327 32 32 32h682.668c17.673 0 32-14.327 32-32v-500.621c0-17.673-14.327-32-32-32h-682.668c-17.673 0-32 14.327-32 32v500.621zM194.917 672v-436.621h618.668v436.621h-618.668z" />
<glyph unicode="&#xe91d;" d="M194.917 672v-436.621h618.668v436.621h-618.668z" />
<glyph unicode="&#xe91e;" d="M130.917 704c0 17.673 14.327 32 32 32h682.668c17.673 0 32-14.327 32-32v-500.621c0-17.673-14.327-32-32-32h-682.668c-17.673 0-32 14.327-32 32v500.621zM194.917 672v-436.621h618.668v436.621h-618.668z" />
<glyph unicode="&#xe91f;" d="M194.917 672v-436.621h618.668v436.621h-618.668z" />
<glyph unicode="&#xe920;" d="M260.25 74.667c-17.673 0-32 14.327-32 32v682.667c0 17.673 14.327 32 32 32h500.62c17.677 0 32-14.327 32-32v-682.667c0-17.673-14.323-32-32-32h-500.62zM292.25 138.667h436.62v618.667h-436.62v-618.667z" />
<glyph unicode="&#xe921;" d="M292.25 138.667h436.62v618.667h-436.62v-618.667z" />
<glyph unicode="&#xe922;" d="M260.25 74.667c-17.673 0-32 14.327-32 32v682.667c0 17.673 14.327 32 32 32h500.62c17.677 0 32-14.327 32-32v-682.667c0-17.673-14.323-32-32-32h-500.62zM292.25 138.667h436.62v618.667h-436.62v-618.667z" />
<glyph unicode="&#xe923;" d="M292.25 138.667h436.62v618.667h-436.62v-618.667z" />
<glyph unicode="&#xe924;" d="M192 96c-17.673 0-32 14.327-32 32v640c0 17.673 14.327 32 32 32h640c17.673 0 32-14.327 32-32v-640c0-17.673-14.327-32-32-32h-640zM224 160h576v576h-576v-576z" />
<glyph unicode="&#xe925;" d="M224 160h576v576h-576v-576z" />
<glyph unicode="&#xe926;" d="M192 96c-17.673 0-32 14.327-32 32v640c0 17.673 14.327 32 32 32h640c17.673 0 32-14.327 32-32v-640c0-17.673-14.327-32-32-32h-640zM224 160h576v576h-576v-576z" />
<glyph unicode="&#xe927;" d="M224 160h576v576h-576v-576z" />
<glyph unicode="&#xe928;" glyph-name="ic_free_ratio_s" d="M864 128.043c0-17.673-14.327-32-32-32h-228.561c-17.673 0-32 14.327-32 32s14.327 32 32 32h196.561v196.561c0 17.673 14.327 32 32 32s32-14.327 32-32v-228.561zM160 768c0 17.673 14.327 32 32 32h228.561c17.673 0 32-14.327 32-32s-14.327-32-32-32h-196.561v-196.561c0-17.673-14.327-32-32-32s-32 14.327-32 32v228.561zM832 799.979c17.673 0 32-14.327 32-32v-228.561c0-17.673-14.327-32.001-32-32.001s-32 14.327-32 32.001v196.561h-196.561c-17.673 0-32 14.327-32 32s14.327 32 32 32h228.561zM192 96.043c-17.673 0-32 14.327-32 32v228.561c0 17.673 14.327 32 32 32s32-14.327 32-32v-196.561h196.561c17.673 0 32-14.327 32-32s-14.327-32-32-32h-228.561z" />
<glyph unicode="&#xe929;" glyph-name="ic_free_ratio_n" d="M864 128.043c0-17.673-14.327-32-32-32h-228.561c-17.673 0-32 14.327-32 32s14.327 32 32 32h196.561v196.561c0 17.673 14.327 32 32 32s32-14.327 32-32v-228.561zM160 768c0 17.673 14.327 32 32 32h228.561c17.673 0 32-14.327 32-32s-14.327-32-32-32h-196.561v-196.561c0-17.673-14.327-32-32-32s-32 14.327-32 32v228.561zM832 799.979c17.673 0 32-14.327 32-32v-228.561c0-17.673-14.327-32.001-32-32.001s-32 14.327-32 32.001v196.561h-196.561c-17.673 0-32 14.327-32 32s14.327 32 32 32h228.561zM192 96.043c-17.673 0-32 14.327-32 32v228.561c0 17.673 14.327 32 32 32s32-14.327 32-32v-196.561h196.561c17.673 0 32-14.327 32-32s-14.327-32-32-32h-228.561z" />
<glyph unicode="&#xe92a;" glyph-name="ic_delete" d="M458.062 773.818c-18.974 0-36.048-11.517-43.156-29.109l-13.389-33.137c-3.554-8.796-12.091-14.554-21.578-14.554h-147.212c-12.853 0-23.273-10.42-23.273-23.273v-13.964c0-12.853 10.42-23.273 23.273-23.273h13.775c11.782 0 21.705-8.805 23.107-20.502l52.876-441.056v-0.237c4.065-29.85 30.65-52.531 61.515-52.531h255.939c30.864 0 57.451 22.682 61.514 52.531l0.061 0.237 52.876 441.056c1.401 11.698 11.325 20.503 23.11 20.503h13.773c12.851 0 23.273 10.42 23.273 23.273v13.964c0 12.853-10.422 23.273-23.273 23.273h-123.755c-18.977 0-36.049 11.517-43.157 29.109l-7.508 18.583c-7.107 17.592-24.185 29.109-43.157 29.109h-115.634zM332.813 610.472c-1.657 13.851 9.159 26.038 23.108 26.038h312.156c13.95 0 24.767-12.189 23.105-26.041l-48.784-407.274c-1.401-11.697-11.325-20.503-23.11-20.503h-214.633c-11.784 0-21.708 8.806-23.108 20.508l-48.734 407.273z" />
<glyph unicode="&#xe92b;" glyph-name="ic_save" d="M295.065 168.727h433.869c16.533 0 32.391 6.568 44.079 18.26 11.692 11.688 18.26 27.546 18.26 44.079v386.077c0.014 9.382-2.090 18.645-6.158 27.1-4.063 8.455-9.989 15.883-17.324 21.731l-87.896 70.649c-11.106 9.008-24.972 13.924-39.27 13.922h-345.559c-16.533 0-32.389-6.568-44.079-18.258s-18.258-27.547-18.258-44.079v-457.142c0-16.533 6.568-32.391 18.258-44.079 11.69-11.692 27.547-18.26 44.079-18.26zM372.364 238.545v142.96c0 5.511 2.189 10.799 6.086 14.694s9.182 6.088 14.693 6.088h237.716c5.511 0 10.794-2.192 14.69-6.088 3.901-3.896 6.088-9.183 6.088-14.694v-142.96h-279.273z" />
<glyph unicode="&#xe92c;" glyph-name="ic_unbind" d="M780.311 373.169l-60.593 20.447c-15.146 4.547-31.050-4.543-35.593-18.935-3.789-14.387 3.025-29.538 17.417-34.839l60.593-20.447c15.146-5.302 31.050 3.030 35.598 18.176 4.543 15.146-2.271 30.296-17.422 35.598zM631.119 567.093c-11.362 11.361-28.779 11.361-40.141 0l-160.568-161.324c-10.604-11.362-9.846-29.538 1.515-40.141 10.604-9.849 28.024-9.849 38.626 0l160.568 161.323c10.603 11.361 10.603 28.781 0 40.142zM657.585 294.447c-5.302 15.146-21.206 22.719-35.598 18.176-15.146-5.302-22.723-21.206-18.176-35.598l20.447-60.593c5.302-15.146 21.206-22.719 36.357-17.417 15.146 5.302 22.719 21.206 17.417 36.352l-20.447 59.080zM403.102 638.271c4.545-15.148 20.45-23.479 35.597-18.935s23.479 20.45 18.935 35.597c0 0.757-0.757 1.515-0.757 2.272l-20.45 60.591c-5.302 15.148-21.207 22.722-35.597 18.177s-22.722-21.207-18.177-35.597l20.449-62.106zM280.375 560.269l60.591-20.45c15.148-5.302 31.053 3.030 35.597 18.177 5.302 15.148-3.030 31.053-18.177 35.597l-60.591 19.692c-15.148 5.302-31.053-3.029-35.597-18.177s3.787-30.296 18.177-34.84zM550.796 607.224l80.282 80.283c33.327 33.325 87.101 33.325 120.427 0 33.322-33.325 33.322-87.1 0-120.425l-80.286-80.282c-11.362-10.603-12.116-28.784-1.513-40.145 10.603-11.357 28.779-12.116 40.141-1.513 0.759 0.759 0.759 0.759 1.513 1.513l80.286 80.286c57.563 53.017 62.106 143.147 9.090 200.709-53.020 57.562-143.151 62.106-200.709 9.088-3.030-3.029-6.060-6.059-9.090-9.088l-80.286-80.283c-11.357-10.604-12.116-28.781-1.513-40.142s28.779-12.118 40.141-1.515c0.759 0 0.759 0.757 1.517 1.515zM470.514 205.070l80.286 80.286c10.603 11.357 9.844 29.538-1.517 40.141-10.603 9.844-28.020 9.844-38.623 0l-80.285-80.286c-33.326-33.322-87.1-33.322-120.425 0-33.326 33.327-33.326 87.101 0 120.427l80.283 81.040c10.604 11.362 9.846 29.538-1.515 40.141-10.604 9.847-28.023 9.847-38.627 0l-80.283-81.040c-53.018-57.563-48.473-147.689 9.088-200.709 53.775-49.231 137.088-49.231 191.618 0z" />
<glyph unicode="&#xe92d;" glyph-name="ic_zoomrate" d="M725.686 333.042c-13.633 13.633-35.738 13.633-49.371 0s-13.633-35.738 0-49.366l136.816-136.816c13.633-13.633 35.733-13.633 49.366 0s13.633 35.738 0 49.371l-136.811 136.811zM512 285.091c-115.678 0-209.455 93.775-209.455 209.455s93.776 209.455 209.455 209.455c115.679 0 209.455-93.776 209.455-209.455s-93.775-209.455-209.455-209.455zM512 215.273c154.238 0 279.273 125.035 279.273 279.273s-125.035 279.273-279.273 279.273c-154.238 0-279.273-125.035-279.273-279.273s125.035-279.273 279.273-279.273z" />
<glyph unicode="&#xe92f;" glyph-name="ic_cancelpreview" d="M812.986 652.281c14.164 13.077 15.048 35.162 1.974 49.329-13.079 14.167-35.165 15.050-49.329 1.973l-65.704-60.648c-57.591 25.852-120.069 40.103-185.609 40.103-167.958 0-315.783-93.588-412.855-236.15-8.072-11.855-8.072-27.443 0-39.298 45.428-66.714 101.971-122.708 166.491-163.398l-56.114-51.796c-14.167-13.079-15.050-35.165-1.973-49.334 13.077-14.164 35.163-15.048 49.329-1.969l74.116 68.413c56.311-24.562 117.205-38.065 181.005-38.065 167.959 0 315.783 93.589 412.854 236.148 8.071 11.855 8.071 27.443 0 39.298-44.479 65.324-99.617 120.365-162.462 160.832l48.277 44.561zM643.193 590.567l-321.798-297.047c-55.94 31.902-106.286 77.41-148.228 133.72 86.299 115.86 208.173 185.979 341.151 185.979 44.507 0 87.775-7.855 128.875-22.652zM390.369 262.172l321.059 296.365c54.267-31.766 103.145-76.396 144.040-131.296-86.3-115.861-208.175-185.982-341.15-185.982-42.733 0-84.321 7.242-123.949 20.913z" />
<glyph unicode="&#xe930;" glyph-name="ic_preview" d="M514.318 241.268c-132.978 0-254.852 70.116-341.151 185.977 86.299 115.863 208.173 185.982 341.151 185.982 132.976 0 254.85-70.118 341.15-185.982-86.3-115.861-208.175-185.977-341.15-185.977zM514.318 683.045c-167.958 0-315.783-93.588-412.855-236.153-8.072-11.85-8.072-27.439 0-39.294 97.072-142.564 244.897-236.148 412.855-236.148s315.783 93.584 412.854 236.148c8.071 11.855 8.071 27.443 0 39.294-97.071 142.565-244.894 236.153-412.854 236.153zM444.5 427.050c0 41.132 33.341 74.473 74.473 74.473s74.473-33.341 74.473-74.473c0-41.132-33.341-74.473-74.473-74.473s-74.473 33.341-74.473 74.473zM518.973 571.341c-79.69 0-144.291-64.601-144.291-144.291s64.601-144.291 144.291-144.291c79.69 0 144.291 64.6 144.291 144.291s-64.6 144.291-144.291 144.291z" />
<glyph unicode="&#xe931;" glyph-name="ic_apply" d="M867.919 669.684c19.61-16.624 22.025-45.996 5.404-65.603l-355.165-418.909c-8.657-10.212-21.29-16.202-34.676-16.44s-26.226 5.302-35.24 15.202l-249.929 274.455c-17.308 19.009-15.931 48.447 3.076 65.755s48.445 15.931 65.753-3.075l214.264-235.293 320.908 378.506c16.626 19.608 45.996 22.027 65.606 5.403z" />
<glyph unicode="&#xe932;" d="M589.303 447.432l168.429 66.738c-33.927 130.677-168.676 209.445-300.966 175.932-59.574-15.092-111.318-51.572-145.13-102.319 2.527 0.063 277.666-140.35 277.666-140.35z" />
<glyph unicode="&#xe933;" d="M418.098 558.753c-31.209 19.094-67.21 29.16-103.92 29.11-0.848 0-1.682-0.053-2.527-0.063-109.199-1.336-196.623-89.862-195.271-197.726 0.49-39.126 12.867-77.205 35.525-109.303l432.302 179.698-166.108 98.284z" />
<glyph unicode="&#xe934;" d="M757.723 514.179c-3.589 0.237-7.201 0.401-10.85 0.401-21.914 0.021-43.594-4.4-63.707-12.989l-98.984-41.126 304.189-179.987c42.1 77.2 12.87 173.489-65.28 215.074-20.196 10.745-42.482 17.097-65.368 18.627z" />
<glyph unicode="&#xe935;" d="M151.909 280.767c36.948-52.475 97.567-83.745 162.273-83.712h432.719c59.108-0.019 113.455 32.023 141.498 83.423l-304.189 179.987-432.302-179.698z" />
<glyph unicode="&#xe936;" d="M215.225 238.829l30.517-53.215c6.341-11.203 15.457-20.010 26.158-26.41l108.991 190.469h-217.982c0-12.404 3.171-24.809 9.512-36.017l42.804-74.826z" />
<glyph unicode="&#xe937;" d="M508.905 573.726l-108.99 190.467c-10.701-6.402-19.816-15.205-26.158-26.409l-201.336-352.122c-6.225-10.966-9.504-23.38-9.512-36.012h217.982l128.014 224.077z" />
<glyph unicode="&#xe938;" d="M745.914 159.204c10.701 6.4 19.819 15.206 26.159 26.41l12.684 22.007 60.639 106.035c6.339 11.208 9.509 23.613 9.509 36.017h-217.996l46.387-92.034 62.618-98.434z" />
<glyph unicode="&#xe939;" d="M508.947 573.748l108.991 190.467c-10.701 6.402-22.989 9.603-35.672 9.603h-146.641c-12.682 0-24.968-3.601-35.67-9.603l108.992-190.467z" />
<glyph unicode="&#xe93a;" d="M636.928 349.673h-256.028l-108.99-190.469c10.701-6.405 22.987-9.602 35.67-9.602h402.672c12.684 0 24.967 3.598 35.668 9.602l-108.991 190.469z" />
<glyph unicode="&#xe93b;" d="M744.727 561.722l-100.669 176.062c-6.344 11.204-15.458 20.007-26.159 26.409l-108.991-190.467 128.014-224.077h217.586c0 12.404-3.17 24.809-9.514 36.012l-100.268 176.061z" />
<glyph unicode="&#xe93c;" glyph-name="ic_horizontal" d="M139.636 715.636c-19.28 0-34.909-15.629-34.909-34.909v-465.455c0-9.258 3.678-18.139 10.225-24.683 6.547-6.549 15.426-10.226 24.684-10.226h232.727c19.28 0 34.909 15.63 34.909 34.909v465.455c0 19.28-15.629 34.909-34.909 34.909h-232.727zM616.727 773.818c0 19.28 15.63 34.909 34.909 34.909h232.727c9.258 0 18.139-3.678 24.683-10.225 6.549-6.547 10.226-15.426 10.226-24.684v-651.636c0-19.279-15.63-34.909-34.909-34.909h-232.727c-19.279 0-34.909 15.63-34.909 34.909v651.636zM686.545 738.909v-581.818h162.909v581.818h-162.909zM512 901.818c19.279 0 34.909-15.629 34.909-34.909v-837.818c0-19.279-15.63-34.909-34.909-34.909s-34.909 15.63-34.909 34.909v837.818c0 19.28 15.63 34.909 34.909 34.909z" />
<glyph unicode="&#xe93d;" glyph-name="ic_vertical" d="M279.273 40.727c-19.28 0-34.909 15.63-34.909 34.909v232.727c0 19.279 15.629 34.909 34.909 34.909h465.455c19.279 0 34.909-15.63 34.909-34.909v-232.727c0-9.258-3.677-18.139-10.226-24.683-6.544-6.549-15.425-10.226-24.683-10.226h-465.455zM186.182 552.727c-19.28 0-34.909 15.629-34.909 34.909v232.727c0 9.258 3.678 18.138 10.225 24.684s15.426 10.225 24.684 10.225h651.636c19.279 0 34.909-15.629 34.909-34.909v-232.727c0-19.28-15.63-34.909-34.909-34.909h-651.636zM221.091 622.545h581.818v162.909h-581.818v-162.909zM58.182 448c0 19.279 15.629 34.909 34.909 34.909h837.818c19.279 0 34.909-15.63 34.909-34.909s-15.63-34.909-34.909-34.909h-837.818c-19.28 0-34.909 15.63-34.909 34.909z" />
</font>
</defs>
</svg>
